<?xml version="1.0" encoding="utf-8"?>
<!-- Generator: Adobe Illustrator 26.5.0, SVG Export Plug-In . SVG Version: 6.00 Build 0)  -->
<svg version="1.1" id="Layer_1" xmlns="http://www.w3.org/2000/svg" xmlns:xlink="http://www.w3.org/1999/xlink" x="0px" y="0px"
	 viewBox="0 0 75 75" style="enable-background:new 0 0 75 75;" xml:space="preserve">
<style type="text/css">
	.st0{fill:#BF8E5B;}
</style>
<g>
	<g>
		<circle class="st0" cx="9.4" cy="9.9" r="8.9"/>
		<path d="M9.4,1.5c4.6,0,8.4,3.8,8.4,8.4s-3.8,8.4-8.4,8.4S1,14.5,1,9.9S4.8,1.5,9.4,1.5 M9.4,0.5C4.2,0.5,0,4.7,0,9.9
			s4.2,9.4,9.4,9.4s9.4-4.2,9.4-9.4S14.6,0.5,9.4,0.5L9.4,0.5z"/>
	</g>
	<g>
		<circle class="st0" cx="9.4" cy="38" r="8.9"/>
		<path d="M9.4,29.6c4.6,0,8.4,3.8,8.4,8.4s-3.8,8.4-8.4,8.4S1,42.6,1,38S4.8,29.6,9.4,29.6 M9.4,28.6C4.2,28.6,0,32.8,0,38
			s4.2,9.4,9.4,9.4s9.4-4.2,9.4-9.4S14.6,28.6,9.4,28.6L9.4,28.6z"/>
	</g>
	<g>
		<circle class="st0" cx="37.5" cy="38" r="8.9"/>
		<path d="M37.5,29.6c4.6,0,8.4,3.8,8.4,8.4s-3.8,8.4-8.4,8.4s-8.4-3.8-8.4-8.4S32.9,29.6,37.5,29.6 M37.5,28.6
			c-5.2,0-9.4,4.2-9.4,9.4s4.2,9.4,9.4,9.4s9.4-4.2,9.4-9.4S42.7,28.6,37.5,28.6L37.5,28.6z"/>
	</g>
	<g>
		<circle class="st0" cx="65.6" cy="38" r="8.9"/>
		<path d="M65.6,29.6c4.6,0,8.4,3.8,8.4,8.4s-3.8,8.4-8.4,8.4s-8.4-3.8-8.4-8.4S61,29.6,65.6,29.6 M65.6,28.6
			c-5.2,0-9.4,4.2-9.4,9.4s4.2,9.4,9.4,9.4S75,43.2,75,38S70.8,28.6,65.6,28.6L65.6,28.6z"/>
	</g>
	<g>
		<circle class="st0" cx="9.4" cy="66.1" r="8.9"/>
		<path d="M9.4,57.8c4.6,0,8.4,3.8,8.4,8.4s-3.8,8.4-8.4,8.4S1,70.7,1,66.1S4.8,57.8,9.4,57.8 M9.4,56.8c-5.2,0-9.4,4.2-9.4,9.4
			s4.2,9.4,9.4,9.4s9.4-4.2,9.4-9.4S14.6,56.8,9.4,56.8L9.4,56.8z"/>
	</g>
	<g>
		<circle class="st0" cx="37.5" cy="66.1" r="8.9"/>
		<path d="M37.5,57.8c4.6,0,8.4,3.8,8.4,8.4s-3.8,8.4-8.4,8.4s-8.4-3.8-8.4-8.4S32.9,57.8,37.5,57.8 M37.5,56.8
			c-5.2,0-9.4,4.2-9.4,9.4s4.2,9.4,9.4,9.4s9.4-4.2,9.4-9.4S42.7,56.8,37.5,56.8L37.5,56.8z"/>
	</g>
	<g>
		<circle class="st0" cx="65.6" cy="66.1" r="8.9"/>
		<path d="M65.6,57.8c4.6,0,8.4,3.8,8.4,8.4s-3.8,8.4-8.4,8.4s-8.4-3.8-8.4-8.4S61,57.8,65.6,57.8 M65.6,56.8
			c-5.2,0-9.4,4.2-9.4,9.4s4.2,9.4,9.4,9.4s9.4-4.2,9.4-9.4S70.8,56.8,65.6,56.8L65.6,56.8z"/>
	</g>
	<g>
		<circle class="st0" cx="37.5" cy="9.9" r="8.9"/>
		<path d="M37.5,1.5c4.6,0,8.4,3.8,8.4,8.4s-3.8,8.4-8.4,8.4s-8.4-3.8-8.4-8.4S32.9,1.5,37.5,1.5 M37.5,0.5c-5.2,0-9.4,4.2-9.4,9.4
			s4.2,9.4,9.4,9.4s9.4-4.2,9.4-9.4S42.7,0.5,37.5,0.5L37.5,0.5z"/>
	</g>
	<g>
		<circle class="st0" cx="65.6" cy="9.9" r="8.9"/>
		<path d="M65.6,1.5c4.6,0,8.4,3.8,8.4,8.4s-3.8,8.4-8.4,8.4s-8.4-3.8-8.4-8.4S61,1.5,65.6,1.5 M65.6,0.5c-5.2,0-9.4,4.2-9.4,9.4
			s4.2,9.4,9.4,9.4S75,15.1,75,9.9S70.8,0.5,65.6,0.5L65.6,0.5z"/>
	</g>
</g>
</svg>
